# xmcd
#
# Track frame offsets: 
#        165
#        22235
#        39826
#        57210
#        81166
#        102230
#        121896
#        150786
#        176377
#
# Disc length: 2535 seconds
#
# Revision: 0
# Processed by: cddbd v1.5.2PL0 Copyright (c) Steve Scherf et al.
# Submitted via: ExactAudioCopy v0.95b3
#
DISCID=5f09e509
DTITLE=Bernd Rinser - As Long As
DYEAR=2005
DGENRE=Country
TTITLE0=Luck
TTITLE1=Country Girl
TTITLE2=Fishin´ Blues
TTITLE3=Too Much Bad Blues
TTITLE4=Personal Devil
TTITLE5=Set My Heart On You
TTITLE6=As Long As
TTITLE7=Flyin´ Blind
TTITLE8=Dreamy Eyes
EXTD=
EXTT0=
EXTT1=
EXTT2=
EXTT3=
EXTT4=
EXTT5=
EXTT6=
EXTT7=
EXTT8=
PLAYORDER=
